<svg xmlns="http://www.w3.org/2000/svg" viewBox="0 0 64 64">
  <defs>
    <linearGradient id="plasma" x1="15" y1="12" x2="49" y2="54" gradientUnits="userSpaceOnUse">
      <stop stop-color="#00d4b4"/>
      <stop offset="1" stop-color="#00a896"/>
    </linearGradient>
  </defs>
  <rect width="64" height="64" rx="16" fill="#0e1729"/>
  <path d="M19 38c-4.7 0-8-3.1-8-7.1 0-3.7 2.9-6.7 6.8-7.1C20 17.4 25.5 13 32.2 13c7 0 12.8 4.9 14.5 11.3 4 .8 6.9 4.1 6.9 8.1 0 4.7-3.8 8.4-8.6 8.4H33.8l-5.4 6.4-5.5-6.4H19z" fill="url(#plasma)"/>
  <path d="M38.8 21.7c-2.1-2.1-4.6-3.1-7.4-3.1-6.2 0-10.6 4.5-10.6 10.4s4.4 10.4 10.6 10.4c2.9 0 5.4-1 7.4-3.1" fill="none" stroke="#f9fafb" stroke-width="4.6" stroke-linecap="round"/>
  <path d="M34.8 25.7c-1.1-1.2-2.6-1.8-4.4-1.8-2.5 0-4.2 1.2-4.2 3.1 0 4.8 9.2 2.3 9.2 7.2 0 2-1.8 3.4-4.9 3.4-2.2 0-4-.7-5.3-2.1" fill="none" stroke="#080e1c" stroke-width="3.4" stroke-linecap="round" stroke-linejoin="round"/>
</svg>
